<svg id="visual" viewBox="0 0 1920 1080" width="1920" height="1080" xmlns="http://www.w3.org/2000/svg" xmlns:xlink="http://www.w3.org/1999/xlink" version="1.1"><rect x="0" y="0" width="1920" height="1080" fill="#fff"></rect><path d="M0 699L64 702.8C128 706.7 256 714.3 384 715.5C512 716.7 640 711.3 768 696.2C896 681 1024 656 1152 644.8C1280 633.7 1408 636.3 1536 642.7C1664 649 1792 659 1856 664L1920 669L1920 0L1856 0C1792 0 1664 0 1536 0C1408 0 1280 0 1152 0C1024 0 896 0 768 0C640 0 512 0 384 0C256 0 128 0 64 0L0 0Z" fill="#0d293c"></path><path d="M0 487L64 488C128 489 256 491 384 486.5C512 482 640 471 768 463.8C896 456.7 1024 453.3 1152 464.2C1280 475 1408 500 1536 493.5C1664 487 1792 449 1856 430L1920 411L1920 0L1856 0C1792 0 1664 0 1536 0C1408 0 1280 0 1152 0C1024 0 896 0 768 0C640 0 512 0 384 0C256 0 128 0 64 0L0 0Z" fill="#6f88a0"></path><path d="M0 259L64 263.7C128 268.3 256 277.7 384 280.3C512 283 640 279 768 269C896 259 1024 243 1152 247.2C1280 251.3 1408 275.7 1536 273.8C1664 272 1792 244 1856 230L1920 216L1920 0L1856 0C1792 0 1664 0 1536 0C1408 0 1280 0 1152 0C1024 0 896 0 768 0C640 0 512 0 384 0C256 0 128 0 64 0L0 0Z" fill="#0d293c"></path></svg>