<svg id="visual" viewBox="0 0 1920 1080" width="1920" height="1080" xmlns="http://www.w3.org/2000/svg" xmlns:xlink="http://www.w3.org/1999/xlink" version="1.1"><rect x="0" y="0" width="1920" height="1080" fill="#fff"></rect><path d="M1030 0L1022.3 45C1014.7 90 999.3 180 974.8 270C950.3 360 916.7 450 906.7 540C896.7 630 910.3 720 936.7 810C963 900 1002 990 1021.5 1035L1041 1080L0 1080L0 1035C0 990 0 900 0 810C0 720 0 630 0 540C0 450 0 360 0 270C0 180 0 90 0 45L0 0Z" fill="#00334e"></path><path d="M645 0L636.5 45C628 90 611 180 596.5 270C582 360 570 450 587 540C604 630 650 720 671.8 810C693.7 900 691.3 990 690.2 1035L689 1080L0 1080L0 1035C0 990 0 900 0 810C0 720 0 630 0 540C0 450 0 360 0 270C0 180 0 90 0 45L0 0Z" fill="#145374"></path><path d="M324 0L312.8 45C301.7 90 279.3 180 291.7 270C304 360 351 450 379.3 540C407.7 630 417.3 720 416.3 810C415.3 900 403.7 990 397.8 1035L392 1080L0 1080L0 1035C0 990 0 900 0 810C0 720 0 630 0 540C0 450 0 360 0 270C0 180 0 90 0 45L0 0Z" fill="#00334e"></path></svg>