<svg id="visual" viewBox="0 0 1920 1080" width="1920" height="1080" xmlns="http://www.w3.org/2000/svg" xmlns:xlink="http://www.w3.org/1999/xlink" version="1.1"><rect x="0" y="0" width="1920" height="1080" fill="#0d293c"></rect><defs><linearGradient id="grad1_0" x1="43.8%" y1="100%" x2="100%" y2="0%"><stop offset="14.444444444444446%" stop-color="#0d293c" stop-opacity="1"></stop><stop offset="85.55555555555554%" stop-color="#0d293c" stop-opacity="1"></stop></linearGradient></defs><defs><linearGradient id="grad2_0" x1="0%" y1="100%" x2="56.3%" y2="0%"><stop offset="14.444444444444446%" stop-color="#0d293c" stop-opacity="1"></stop><stop offset="85.55555555555554%" stop-color="#0d293c" stop-opacity="1"></stop></linearGradient></defs><g transform="translate(1920, 1080)"><path d="M-918 0C-884.4 -154.1 -850.9 -308.3 -778.6 -449.5C-706.3 -590.7 -595.2 -719.1 -459 -795C-322.8 -870.9 -161.4 -894.5 0 -918L0 0Z" fill="#6f88a0"></path></g><g transform="translate(0, 0)"><path d="M918 0C902 174.4 886 348.9 795 459C704 569.1 538 614.9 393 680.7C248 746.5 124 832.2 0 918L0 0Z" fill="#6f88a0"></path></g></svg>