<svg id="visual" viewBox="0 0 900 600" width="900" height="600" xmlns="http://www.w3.org/2000/svg" xmlns:xlink="http://www.w3.org/1999/xlink" version="1.1"><rect x="0" y="0" width="900" height="600" fill="#09293c"></rect><defs><linearGradient id="grad1_0" x1="33.3%" y1="0%" x2="100%" y2="100%"><stop offset="20%" stop-color="#09293c" stop-opacity="1"></stop><stop offset="80%" stop-color="#09293c" stop-opacity="1"></stop></linearGradient></defs><defs><linearGradient id="grad2_0" x1="0%" y1="0%" x2="66.7%" y2="100%"><stop offset="20%" stop-color="#09293c" stop-opacity="1"></stop><stop offset="80%" stop-color="#09293c" stop-opacity="1"></stop></linearGradient></defs><g transform="translate(900, 0)"><path d="M0 432.7C-77.9 422.6 -155.8 412.6 -216.3 374.7C-276.9 336.8 -320.2 271.1 -353.3 204C-386.5 136.9 -409.6 68.5 -432.7 0L0 0Z" fill="#6f88a0"></path></g><g transform="translate(0, 600)"><path d="M0 -432.7C82.4 -425.2 164.8 -417.8 216.3 -374.7C267.9 -331.6 288.6 -252.9 319.6 -184.5C350.5 -116.1 391.6 -58.1 432.7 0L0 0Z" fill="#6f88a0"></path></g></svg>