<svg id="visual" viewBox="0 0 1920 1080" width="1920" height="1080" xmlns="http://www.w3.org/2000/svg" xmlns:xlink="http://www.w3.org/1999/xlink" version="1.1"><rect x="0" y="0" width="1920" height="1080" fill="#0d293c"></rect><g transform="translate(0 1080)"><path d="M257.9 -446.8C335.9 -401.8 401.8 -335.9 446.8 -257.9C491.8 -180 515.9 -90 515.9 0C515.9 90 491.8 180 446.8 257.9C401.8 335.9 335.9 401.8 257.9 446.8C180 491.8 90 515.9 0 515.9C-90 515.9 -180 491.8 -257.9 446.8C-335.9 401.8 -401.8 335.9 -446.8 257.9C-491.8 180 -515.9 90 -515.9 0C-515.9 -90 -491.8 -180 -446.8 -257.9C-401.8 -335.9 -335.9 -401.8 -257.9 -446.8C-180 -491.8 -90 -515.9 0 -515.9C90 -515.9 180 -491.8 257.9 -446.8" fill="#6f88a0"></path></g></svg>