<?xml version="1.0" standalone="no"?>
<!DOCTYPE svg PUBLIC "-//W3C//DTD SVG 20010904//EN"
 "http://www.w3.org/TR/2001/REC-SVG-20010904/DTD/svg10.dtd">
<svg version="1.0" xmlns="http://www.w3.org/2000/svg"
 width="512.000000pt" height="512.000000pt" viewBox="0 0 512.000000 512.000000"
 preserveAspectRatio="xMidYMid meet">

<g transform="translate(0.000000,512.000000) scale(0.100000,-0.100000)"
fill="#FFFFFF" stroke="none"> <!-- Renk beyaza çevrildi -->
<path d="M2283 4782 c-264 -94 -286 -456 -35 -579 48 -24 70 -28 137 -28 67 0
89 4 137 28 65 32 121 90 151 156 30 65 30 187 0 252 -67 148 -241 224 -390
171z m204 -158 c106 -86 93 -230 -27 -296 -52 -28 -129 -21 -177 18 -106 86
-93 230 27 296 52 28 129 21 177 -18z"/>
<path d="M1086 4255 c-75 -29 -130 -80 -173 -160 -23 -43 -27 -62 -27 -135 -1
-73 3 -92 26 -136 33 -62 117 -140 168 -155 l38 -12 4 -114 c3 -106 5 -116 27
-134 13 -10 33 -19 46 -19 13 0 33 9 46 19 22 18 24 28 27 134 l4 114 38 12
c51 15 135 93 168 155 23 44 27 63 26 136 0 72 -4 93 -26 135 -28 55 -96 123
-149 151 -46 24 -190 29 -243 9z m191 -142 c78 -37 113 -145 73 -227 -30 -62
-70 -89 -141 -94 -72 -5 -121 17 -157 71 -55 83 -25 208 59 250 44 21 121 22
166 0z"/>
<path d="M3466 4255 c-75 -29 -130 -80 -173 -160 -23 -43 -27 -62 -27 -135 -1
-73 3 -92 26 -136 33 -62 117 -140 168 -155 l38 -12 4 -114 c3 -106 5 -116 27
-134 29 -24 62 -24 90 -1 19 15 21 29 23 131 l3 114 44 15 c67 22 153 111 181
187 28 77 23 169 -13 242 -27 53 -95 121 -148 149 -46 24 -190 29 -243 9z
m191 -142 c78 -37 113 -145 73 -227 -30 -62 -70 -89 -141 -94 -72 -5 -121 17
-157 71 -55 83 -25 208 59 250 44 21 121 22 166 0z"/>
<path d="M2181 3975 c-370 -83 -666 -353 -765 -696 l-17 -56 -127 -6 c-149 -6
-232 -27 -371 -92 -277 -132 -477 -377 -553 -682 -33 -131 -31 -350 4 -483 50
-188 142 -343 280 -476 102 -98 153 -133 271 -189 207 -98 298 -107 1060 -103
l559 3 19 24 c23 28 24 59 4 88 l-15 21 -657 5 c-634 4 -661 5 -741 25 -321
84 -559 318 -645 637 -31 115 -31 316 1 433 86 318 331 557 649 633 74 18 110
20 228 17 126 -4 150 -8 237 -37 110 -38 225 -105 310 -180 45 -41 63 -51 92
-51 39 0 66 27 66 66 0 75 -258 249 -449 304 -93 27 -90 20 -40 143 80 194
243 360 445 453 217 100 501 100 718 0 151 -69 280 -179 371 -315 93 -141 134
-278 142 -474 7 -176 7 -175 130 -187 51 -4 117 -14 147 -21 48 -10 58 -10 81
5 22 15 26 23 23 59 -3 37 -7 44 -38 59 -19 9 -71 22 -116 29 l-81 13 -6 95
c-16 256 -124 490 -309 667 -102 98 -153 133 -271 189 -153 73 -218 87 -407
91 -119 3 -183 -1 -229 -11z"/>
<path d="M3645 2646 c-54 -23 -825 -467 -853 -491 -16 -13 -41 -47 -57 -77
l-30 -53 0 -360 c0 -345 1 -364 23 -445 59 -213 184 -400 354 -528 29 -22 188
-115 353 -207 226 -125 306 -165 325 -161 34 6 593 318 658 367 173 131 300
323 354 535 22 84 23 108 23 444 l0 355 -31 55 c-17 30 -46 67 -65 82 -36 28
-765 448 -834 479 -48 22 -174 25 -220 5z m564 -359 c260 -149 412 -242 425
-260 20 -27 21 -44 24 -320 2 -179 -1 -322 -8 -369 -33 -227 -156 -426 -345
-555 -16 -11 -148 -86 -292 -167 l-262 -146 -263 146 c-145 80 -276 156 -293
167 -187 128 -309 323 -345 549 -7 47 -10 179 -8 370 3 283 4 298 24 325 13
18 168 112 425 260 391 224 406 232 459 232 54 0 65 -5 459 -232z"/>
<path d="M3983 1628 l-303 -303 -128 128 c-138 137 -159 148 -200 104 -43 -45
-33 -61 141 -235 123 -123 168 -162 187 -162 20 0 100 75 363 338 361 361 363
364 314 410 -48 45 -52 42 -374 -280z"/>
</g>
</svg>